<!-- Generated by IcoMoon.io -->
<svg version="1.1" xmlns="http://www.w3.org/2000/svg" width="28" height="28" viewBox="0 0 28 28">
<title>location</title>
<path d="M14 0c-4.833 0-8.75 3.917-8.75 8.75 0 8.75 8.75 19.25 8.75 19.25s8.75-10.5 8.75-19.25c0-4.833-3.918-8.75-8.75-8.75zM14 14.109c-2.96 0-5.359-2.399-5.359-5.359s2.399-5.359 5.359-5.359 5.359 2.399 5.359 5.359-2.399 5.359-5.359 5.359zM10.609 8.75c0-1.873 1.518-3.391 3.391-3.391s3.391 1.518 3.391 3.391c0 1.873-1.518 3.391-3.391 3.391s-3.391-1.518-3.391-3.391z"></path>
</svg>
